<svg width="16" height="16" viewBox="0 0 16 16" fill="none" xmlns="http://www.w3.org/2000/svg">
<g id="ant-design:column-height-outlined">
<path id="Vector" d="M13.125 13.0621H2.875C2.80625 13.0621 2.75 13.1184 2.75 13.1871L2.75 14.1246C2.75 14.1934 2.80625 14.2496 2.875 14.2496H13.125C13.1938 14.2496 13.25 14.1934 13.25 14.1246V13.1871C13.25 13.1184 13.1938 13.0621 13.125 13.0621ZM13.125 1.7496L2.875 1.7496C2.80625 1.7496 2.75 1.80585 2.75 1.8746V2.8121C2.75 2.88085 2.80625 2.9371 2.875 2.9371L13.125 2.9371C13.1938 2.9371 13.25 2.88085 13.25 2.8121V1.8746C13.25 1.80585 13.1938 1.7496 13.125 1.7496ZM9.54375 5.90585C9.6375 5.90585 9.69063 5.79648 9.63281 5.72304L8.05781 3.72929C8.04739 3.7158 8.03401 3.70488 8.01871 3.69736C8.0034 3.68985 7.98658 3.68594 7.96953 3.68594C7.95248 3.68594 7.93566 3.68985 7.92036 3.69736C7.90505 3.70488 7.89167 3.7158 7.88125 3.72929L6.30625 5.72304C6.29313 5.73972 6.28497 5.75976 6.28271 5.78087C6.28046 5.80197 6.28419 5.82328 6.29348 5.84236C6.30278 5.86144 6.31726 5.87752 6.33527 5.88875C6.35328 5.89998 6.37409 5.90591 6.39531 5.90585H7.4375L7.4375 10.0934H6.45625C6.3625 10.0934 6.30938 10.2027 6.36719 10.2762L7.94219 12.2684C7.9875 12.3262 8.075 12.3262 8.11875 12.2684L9.69375 10.2762C9.75156 10.2027 9.7 10.0934 9.60469 10.0934H8.5625V5.90585H9.54375Z" fill="black" fill-opacity="0.6"/>
</g>
</svg>
