<svg width="19" height="18" viewBox="0 0 19 18" fill="none" xmlns="http://www.w3.org/2000/svg">
<g id="Elemento Outline" clip-path="url(#clip0_1257_35411)">
<path id="Vector" fill-rule="evenodd" clip-rule="evenodd" d="M7.28141 16.7953C9.91825 16.7953 12.1757 15.3298 13.1077 13.2523C13.1191 13.227 9.36601 14.2276 9.48569 13.8739C9.53912 13.7159 11.8398 12.8755 13.5159 11.8952C14.4793 11.3317 14.9229 10.139 14.9229 10.139C14.9229 10.139 13.2999 10.927 12.4794 11.1269C10.8259 11.5298 9.37037 11.4864 9.37037 11.4445C9.37037 11.3537 11.7872 10.8945 15.1463 8.84748C16.7264 7.88465 17.1555 6.22618 17.1555 6.22618C17.1555 6.22618 15.4184 7.26091 14.3683 7.60252C11.8779 8.41263 9.60536 8.65676 9.60536 8.54714C9.60536 8.31244 11.6053 7.76248 13.7257 6.73504C14.8282 6.20083 15.783 5.50291 16.8895 4.72676C18.7 3.45687 18.9986 1.19519 18.9986 1.19519C18.9986 1.19519 17.2129 2.34692 16.3415 2.7294C12.7457 4.30763 9.57069 5.13549 7.28141 5.31472C3.82568 5.58528 0.998535 7.99641 0.998535 11.1269C0.998535 14.2575 3.81147 16.7953 7.28141 16.7953Z" fill="white"/>
</g>
<defs>
<clipPath id="clip0_1257_35411">
<rect width="18.0001" height="18.0001" fill="white" transform="translate(0.998535)"/>
</clipPath>
</defs>
</svg>
